<mxfile host="app.diagrams.net" modified="2021-09-24T06:06:47.317Z" agent="5.0 (Windows NT 10.0; Win64; x64) AppleWebKit/537.36 (KHTML, like Gecko) Chrome/94.0.4606.54 Safari/537.36" etag="Eo_prbhrjWmT-JDdS1bG" version="15.1.4" type="github">
  <diagram id="eJaak_9fL3XcEY9L3VJf" name="Page-1">
    <mxGraphModel dx="1422" dy="794" grid="1" gridSize="10" guides="1" tooltips="1" connect="1" arrows="1" fold="1" page="1" pageScale="1" pageWidth="1654" pageHeight="1169" math="0" shadow="0">
      <root>
        <mxCell id="0" />
        <mxCell id="1" parent="0" />
        <mxCell id="lBj-YhSri37xLT3fHkGi-1" value="EloquentModel" style="swimlane;fontStyle=1;align=center;verticalAlign=top;childLayout=stackLayout;horizontal=1;startSize=26;horizontalStack=0;resizeParent=1;resizeParentMax=0;resizeLast=0;collapsible=1;marginBottom=0;" vertex="1" parent="1">
          <mxGeometry x="480" y="277" width="210" height="140" as="geometry" />
        </mxCell>
        <mxCell id="lBj-YhSri37xLT3fHkGi-2" value="+ connection: string" style="text;strokeColor=none;fillColor=none;align=left;verticalAlign=top;spacingLeft=4;spacingRight=4;overflow=hidden;rotatable=0;points=[[0,0.5],[1,0.5]];portConstraint=eastwest;" vertex="1" parent="lBj-YhSri37xLT3fHkGi-1">
          <mxGeometry y="26" width="210" height="26" as="geometry" />
        </mxCell>
        <mxCell id="lBj-YhSri37xLT3fHkGi-3" value="" style="line;strokeWidth=1;fillColor=none;align=left;verticalAlign=middle;spacingTop=-1;spacingLeft=3;spacingRight=3;rotatable=0;labelPosition=right;points=[];portConstraint=eastwest;" vertex="1" parent="lBj-YhSri37xLT3fHkGi-1">
          <mxGeometry y="52" width="210" height="8" as="geometry" />
        </mxCell>
        <mxCell id="lBj-YhSri37xLT3fHkGi-4" value="+ getConnection(): Connection&#xa;+ newEloquentBuilder(QueryBuider):&#xa;EloquentBuilder&#xa;+ newModelQuery():EloquentBuilder" style="text;strokeColor=none;fillColor=none;align=left;verticalAlign=top;spacingLeft=4;spacingRight=4;overflow=hidden;rotatable=0;points=[[0,0.5],[1,0.5]];portConstraint=eastwest;" vertex="1" parent="lBj-YhSri37xLT3fHkGi-1">
          <mxGeometry y="60" width="210" height="80" as="geometry" />
        </mxCell>
        <mxCell id="lBj-YhSri37xLT3fHkGi-6" value="MysqlConnection" style="swimlane;fontStyle=1;align=center;verticalAlign=top;childLayout=stackLayout;horizontal=1;startSize=26;horizontalStack=0;resizeParent=1;resizeParentMax=0;resizeLast=0;collapsible=1;marginBottom=0;" vertex="1" parent="1">
          <mxGeometry x="710" y="397" width="160" height="168" as="geometry" />
        </mxCell>
        <mxCell id="lBj-YhSri37xLT3fHkGi-7" value="+ grammar: QueryGrammar&#xa;+ pdo: Closure" style="text;strokeColor=none;fillColor=none;align=left;verticalAlign=top;spacingLeft=4;spacingRight=4;overflow=hidden;rotatable=0;points=[[0,0.5],[1,0.5]];portConstraint=eastwest;" vertex="1" parent="lBj-YhSri37xLT3fHkGi-6">
          <mxGeometry y="26" width="160" height="44" as="geometry" />
        </mxCell>
        <mxCell id="lBj-YhSri37xLT3fHkGi-8" value="" style="line;strokeWidth=1;fillColor=none;align=left;verticalAlign=middle;spacingTop=-1;spacingLeft=3;spacingRight=3;rotatable=0;labelPosition=right;points=[];portConstraint=eastwest;" vertex="1" parent="lBj-YhSri37xLT3fHkGi-6">
          <mxGeometry y="70" width="160" height="8" as="geometry" />
        </mxCell>
        <mxCell id="lBj-YhSri37xLT3fHkGi-9" value="+ query(): QueryBuilder" style="text;strokeColor=none;fillColor=none;align=left;verticalAlign=top;spacingLeft=4;spacingRight=4;overflow=hidden;rotatable=0;points=[[0,0.5],[1,0.5]];portConstraint=eastwest;" vertex="1" parent="lBj-YhSri37xLT3fHkGi-6">
          <mxGeometry y="78" width="160" height="90" as="geometry" />
        </mxCell>
        <mxCell id="lBj-YhSri37xLT3fHkGi-13" style="edgeStyle=orthogonalEdgeStyle;rounded=0;orthogonalLoop=1;jettySize=auto;html=1;exitX=1;exitY=0.5;exitDx=0;exitDy=0;entryX=0.5;entryY=0;entryDx=0;entryDy=0;dashed=1;" edge="1" parent="1" source="lBj-YhSri37xLT3fHkGi-4" target="lBj-YhSri37xLT3fHkGi-6">
          <mxGeometry relative="1" as="geometry" />
        </mxCell>
        <mxCell id="lBj-YhSri37xLT3fHkGi-14" value="QueryBuilder" style="swimlane;fontStyle=1;align=center;verticalAlign=top;childLayout=stackLayout;horizontal=1;startSize=26;horizontalStack=0;resizeParent=1;resizeParentMax=0;resizeLast=0;collapsible=1;marginBottom=0;" vertex="1" parent="1">
          <mxGeometry x="1010" y="247" width="190" height="104" as="geometry" />
        </mxCell>
        <mxCell id="lBj-YhSri37xLT3fHkGi-15" value="+ connection: MysqlConnection&#xa;+ grammar: QueryGrammar" style="text;strokeColor=none;fillColor=none;align=left;verticalAlign=top;spacingLeft=4;spacingRight=4;overflow=hidden;rotatable=0;points=[[0,0.5],[1,0.5]];portConstraint=eastwest;" vertex="1" parent="lBj-YhSri37xLT3fHkGi-14">
          <mxGeometry y="26" width="190" height="44" as="geometry" />
        </mxCell>
        <mxCell id="lBj-YhSri37xLT3fHkGi-16" value="" style="line;strokeWidth=1;fillColor=none;align=left;verticalAlign=middle;spacingTop=-1;spacingLeft=3;spacingRight=3;rotatable=0;labelPosition=right;points=[];portConstraint=eastwest;" vertex="1" parent="lBj-YhSri37xLT3fHkGi-14">
          <mxGeometry y="70" width="190" height="8" as="geometry" />
        </mxCell>
        <mxCell id="lBj-YhSri37xLT3fHkGi-17" value="+ method(type): type" style="text;strokeColor=none;fillColor=none;align=left;verticalAlign=top;spacingLeft=4;spacingRight=4;overflow=hidden;rotatable=0;points=[[0,0.5],[1,0.5]];portConstraint=eastwest;" vertex="1" parent="lBj-YhSri37xLT3fHkGi-14">
          <mxGeometry y="78" width="190" height="26" as="geometry" />
        </mxCell>
        <mxCell id="lBj-YhSri37xLT3fHkGi-20" value="QueryGrammar" style="swimlane;fontStyle=1;align=center;verticalAlign=top;childLayout=stackLayout;horizontal=1;startSize=26;horizontalStack=0;resizeParent=1;resizeParentMax=0;resizeLast=0;collapsible=1;marginBottom=0;" vertex="1" parent="1">
          <mxGeometry x="1150" y="467" width="160" height="86" as="geometry" />
        </mxCell>
        <mxCell id="lBj-YhSri37xLT3fHkGi-21" value="+ field: type" style="text;strokeColor=none;fillColor=none;align=left;verticalAlign=top;spacingLeft=4;spacingRight=4;overflow=hidden;rotatable=0;points=[[0,0.5],[1,0.5]];portConstraint=eastwest;" vertex="1" parent="lBj-YhSri37xLT3fHkGi-20">
          <mxGeometry y="26" width="160" height="26" as="geometry" />
        </mxCell>
        <mxCell id="lBj-YhSri37xLT3fHkGi-22" value="" style="line;strokeWidth=1;fillColor=none;align=left;verticalAlign=middle;spacingTop=-1;spacingLeft=3;spacingRight=3;rotatable=0;labelPosition=right;points=[];portConstraint=eastwest;" vertex="1" parent="lBj-YhSri37xLT3fHkGi-20">
          <mxGeometry y="52" width="160" height="8" as="geometry" />
        </mxCell>
        <mxCell id="lBj-YhSri37xLT3fHkGi-23" value="+ method(type): type" style="text;strokeColor=none;fillColor=none;align=left;verticalAlign=top;spacingLeft=4;spacingRight=4;overflow=hidden;rotatable=0;points=[[0,0.5],[1,0.5]];portConstraint=eastwest;" vertex="1" parent="lBj-YhSri37xLT3fHkGi-20">
          <mxGeometry y="60" width="160" height="26" as="geometry" />
        </mxCell>
        <mxCell id="lBj-YhSri37xLT3fHkGi-33" style="edgeStyle=orthogonalEdgeStyle;rounded=0;orthogonalLoop=1;jettySize=auto;html=1;exitX=1;exitY=0.5;exitDx=0;exitDy=0;entryX=-0.006;entryY=0.151;entryDx=0;entryDy=0;entryPerimeter=0;dashed=1;" edge="1" parent="1" source="lBj-YhSri37xLT3fHkGi-9" target="lBj-YhSri37xLT3fHkGi-14">
          <mxGeometry relative="1" as="geometry">
            <Array as="points">
              <mxPoint x="870" y="502" />
              <mxPoint x="960" y="502" />
              <mxPoint x="960" y="263" />
            </Array>
          </mxGeometry>
        </mxCell>
        <mxCell id="lBj-YhSri37xLT3fHkGi-34" style="edgeStyle=orthogonalEdgeStyle;rounded=0;orthogonalLoop=1;jettySize=auto;html=1;entryX=0.5;entryY=0;entryDx=0;entryDy=0;" edge="1" parent="1" source="lBj-YhSri37xLT3fHkGi-17" target="lBj-YhSri37xLT3fHkGi-20">
          <mxGeometry relative="1" as="geometry" />
        </mxCell>
        <mxCell id="lBj-YhSri37xLT3fHkGi-35" style="edgeStyle=orthogonalEdgeStyle;rounded=0;orthogonalLoop=1;jettySize=auto;html=1;exitX=0;exitY=0.5;exitDx=0;exitDy=0;entryX=0.75;entryY=0;entryDx=0;entryDy=0;" edge="1" parent="1" source="lBj-YhSri37xLT3fHkGi-17" target="lBj-YhSri37xLT3fHkGi-6">
          <mxGeometry relative="1" as="geometry" />
        </mxCell>
        <mxCell id="lBj-YhSri37xLT3fHkGi-36" style="edgeStyle=orthogonalEdgeStyle;rounded=0;orthogonalLoop=1;jettySize=auto;html=1;exitX=1;exitY=0.5;exitDx=0;exitDy=0;entryX=0.25;entryY=0;entryDx=0;entryDy=0;" edge="1" parent="1" source="lBj-YhSri37xLT3fHkGi-7" target="lBj-YhSri37xLT3fHkGi-20">
          <mxGeometry relative="1" as="geometry" />
        </mxCell>
        <mxCell id="lBj-YhSri37xLT3fHkGi-37" value="EloquentBuilder" style="swimlane;fontStyle=1;align=center;verticalAlign=top;childLayout=stackLayout;horizontal=1;startSize=26;horizontalStack=0;resizeParent=1;resizeParentMax=0;resizeLast=0;collapsible=1;marginBottom=0;" vertex="1" parent="1">
          <mxGeometry x="590" y="107" width="160" height="114" as="geometry" />
        </mxCell>
        <mxCell id="lBj-YhSri37xLT3fHkGi-38" value="+ query: QueryBuilder&#xa;+ model: EloquentModel" style="text;strokeColor=none;fillColor=none;align=left;verticalAlign=top;spacingLeft=4;spacingRight=4;overflow=hidden;rotatable=0;points=[[0,0.5],[1,0.5]];portConstraint=eastwest;" vertex="1" parent="lBj-YhSri37xLT3fHkGi-37">
          <mxGeometry y="26" width="160" height="54" as="geometry" />
        </mxCell>
        <mxCell id="lBj-YhSri37xLT3fHkGi-39" value="" style="line;strokeWidth=1;fillColor=none;align=left;verticalAlign=middle;spacingTop=-1;spacingLeft=3;spacingRight=3;rotatable=0;labelPosition=right;points=[];portConstraint=eastwest;" vertex="1" parent="lBj-YhSri37xLT3fHkGi-37">
          <mxGeometry y="80" width="160" height="8" as="geometry" />
        </mxCell>
        <mxCell id="lBj-YhSri37xLT3fHkGi-40" value="+ method(type): type" style="text;strokeColor=none;fillColor=none;align=left;verticalAlign=top;spacingLeft=4;spacingRight=4;overflow=hidden;rotatable=0;points=[[0,0.5],[1,0.5]];portConstraint=eastwest;" vertex="1" parent="lBj-YhSri37xLT3fHkGi-37">
          <mxGeometry y="88" width="160" height="26" as="geometry" />
        </mxCell>
        <mxCell id="lBj-YhSri37xLT3fHkGi-47" style="edgeStyle=orthogonalEdgeStyle;rounded=0;orthogonalLoop=1;jettySize=auto;html=1;exitX=0;exitY=0.5;exitDx=0;exitDy=0;entryX=0.25;entryY=0;entryDx=0;entryDy=0;" edge="1" parent="1" source="lBj-YhSri37xLT3fHkGi-38" target="lBj-YhSri37xLT3fHkGi-1">
          <mxGeometry relative="1" as="geometry" />
        </mxCell>
        <mxCell id="lBj-YhSri37xLT3fHkGi-48" style="edgeStyle=orthogonalEdgeStyle;rounded=0;orthogonalLoop=1;jettySize=auto;html=1;entryX=-0.006;entryY=0.132;entryDx=0;entryDy=0;entryPerimeter=0;dashed=1;" edge="1" parent="1" source="lBj-YhSri37xLT3fHkGi-4" target="lBj-YhSri37xLT3fHkGi-37">
          <mxGeometry relative="1" as="geometry">
            <Array as="points">
              <mxPoint x="420" y="397" />
              <mxPoint x="420" y="122" />
            </Array>
          </mxGeometry>
        </mxCell>
        <mxCell id="lBj-YhSri37xLT3fHkGi-49" style="edgeStyle=orthogonalEdgeStyle;rounded=0;orthogonalLoop=1;jettySize=auto;html=1;entryX=0.216;entryY=-0.01;entryDx=0;entryDy=0;entryPerimeter=0;" edge="1" parent="1" source="lBj-YhSri37xLT3fHkGi-38" target="lBj-YhSri37xLT3fHkGi-14">
          <mxGeometry relative="1" as="geometry" />
        </mxCell>
        <mxCell id="lBj-YhSri37xLT3fHkGi-54" style="edgeStyle=orthogonalEdgeStyle;rounded=0;orthogonalLoop=1;jettySize=auto;html=1;exitX=0.5;exitY=0;exitDx=0;exitDy=0;endArrow=block;endFill=0;entryX=0.3;entryY=1.013;entryDx=0;entryDy=0;entryPerimeter=0;" edge="1" parent="1" source="lBj-YhSri37xLT3fHkGi-50" target="lBj-YhSri37xLT3fHkGi-4">
          <mxGeometry relative="1" as="geometry" />
        </mxCell>
        <mxCell id="lBj-YhSri37xLT3fHkGi-50" value="UserModel" style="swimlane;fontStyle=1;align=center;verticalAlign=top;childLayout=stackLayout;horizontal=1;startSize=26;horizontalStack=0;resizeParent=1;resizeParentMax=0;resizeLast=0;collapsible=1;marginBottom=0;" vertex="1" parent="1">
          <mxGeometry x="400" y="479" width="160" height="86" as="geometry" />
        </mxCell>
        <mxCell id="lBj-YhSri37xLT3fHkGi-51" value="+ field: type" style="text;strokeColor=none;fillColor=none;align=left;verticalAlign=top;spacingLeft=4;spacingRight=4;overflow=hidden;rotatable=0;points=[[0,0.5],[1,0.5]];portConstraint=eastwest;" vertex="1" parent="lBj-YhSri37xLT3fHkGi-50">
          <mxGeometry y="26" width="160" height="26" as="geometry" />
        </mxCell>
        <mxCell id="lBj-YhSri37xLT3fHkGi-52" value="" style="line;strokeWidth=1;fillColor=none;align=left;verticalAlign=middle;spacingTop=-1;spacingLeft=3;spacingRight=3;rotatable=0;labelPosition=right;points=[];portConstraint=eastwest;" vertex="1" parent="lBj-YhSri37xLT3fHkGi-50">
          <mxGeometry y="52" width="160" height="8" as="geometry" />
        </mxCell>
        <mxCell id="lBj-YhSri37xLT3fHkGi-53" value="+ method(type): type" style="text;strokeColor=none;fillColor=none;align=left;verticalAlign=top;spacingLeft=4;spacingRight=4;overflow=hidden;rotatable=0;points=[[0,0.5],[1,0.5]];portConstraint=eastwest;" vertex="1" parent="lBj-YhSri37xLT3fHkGi-50">
          <mxGeometry y="60" width="160" height="26" as="geometry" />
        </mxCell>
      </root>
    </mxGraphModel>
  </diagram>
</mxfile>
